#N canvas 90 218 1552 1058 10;
#X obj 113 1 mtof;
#X obj 453 522 dac~;
#X obj 930 536 hsl 128 15 0 1 0 0 empty vol1 vol1 -2 -8 0 10 -262144
-1 -1 3719 1;
#X obj 113 -20 nbx 5 14 -1e+037 1e+037 0 0 empty empty empty 0 -8 0
10 -260129 -1 -1 60 256 0;
#X msg 96 -166 60;
#X obj 309 1 mtof;
#X obj 309 -20 nbx 5 14 -1e+037 1e+037 0 0 empty empty empty 0 -8 0
10 -260507 -1 -1 62 256 0;
#X msg 332 -167 62;
#X obj 499 0 mtof;
#X obj 499 -21 nbx 5 14 -1e+037 1e+037 0 0 empty empty empty 0 -8 0
10 -262113 -1 -1 64 256 0;
#X msg 522 -168 64;
#X obj 690 2 mtof;
#X obj 690 -19 nbx 5 14 -1e+037 1e+037 0 0 empty empty empty 0 -8 0
10 -180183 -1 -1 65 256 0;
#X obj 886 2 mtof;
#X obj 886 -19 nbx 5 14 -1e+037 1e+037 0 0 empty empty empty 0 -8 0
10 -159744 -1 -1 67 256 0;
#X obj 1076 1 mtof;
#X obj 1076 -20 nbx 5 14 -1e+037 1e+037 0 0 empty empty empty 0 -8
0 10 -134208 -1 -1 69 256 0;
#X obj 1264 5 mtof;
#X obj 1264 -23 nbx 5 14 -1e+037 1e+037 0 0 empty empty empty 0 -8
0 10 -202879 -1 -1 71 256 0;
#X msg 292 -166 61;
#X msg 482 -167 63;
#X msg 673 -165 65;
#X msg 713 -166 66;
#X msg 869 -165 66;
#X msg 909 -166 67;
#X msg 1059 -166 68;
#X msg 1099 -167 69;
#X msg 1247 -162 70;
#X msg 1287 -163 71;
#X obj 96 -265 bng 15 250 50 0 empty Ionian Ionian 17 7 0 10 -261234
-1 -1;
#X obj 185 -266 bng 15 250 50 0 empty Dorian Dorian 17 7 0 10 -261682
-1 -1;
#X obj 299 -266 bng 15 250 50 0 empty Phyrgian Phyrgian 17 7 0 10 -262130
-1 -1;
#X obj 424 -270 bng 15 250 50 0 empty Lydian Lydian 17 7 0 10 -204786
-1 -1;
#X obj 528 -271 bng 15 250 50 0 empty Mixolydian Mixolydian 17 7 0
10 -204800 -1 -1;
#X obj 634 -271 bng 15 250 50 0 empty Aeolian Aeolian 17 7 0 10 -203904
-1 -1;
#X obj 735 -271 bng 15 250 50 0 empty Locrian Locrian 17 7 0 10 -232576
-1 -1;
#X obj 32 -332 hradio 15 0 0 7 empty empty empty 0 -8 0 10 -262144
-1 -1 0;
#X obj 76 -310 sel 0 1 2 3 4 5 6;
#X obj 30 -362 nbx 5 14 -1e+037 1e+037 0 0 empty mode mode 0 -8 0 10
-262144 -258244 -1 0 256 0;
#X obj 836 573 nbx 5 14 -1e+037 1e+037 0 0 empty empty empty 0 -8 0
10 -262144 -1 -1 0 256 0;
#X obj 947 578 hsl 128 15 0 1 0 0 empty OSC_VOLUME OSC_VOLUME -2 -8
0 10 -262144 -1 -1 0 1;
#X obj 763 -64 sel 1 2 3 4 5 6 7;
#X obj 1021 -317 loadbang;
#X obj 1048 194 f;
#X obj 1081 194 + 1;
#X obj 1060 360 nbx 5 14 -1e+037 1e+037 0 0 empty empty empty 0 -8
0 10 -262144 -1 -1 0 256 0;
#X obj 987 242 bng 15 250 50 0 empty empty empty 17 7 0 10 -262144
-1 -1;
#X obj 1060 338 != 0;
#X obj 971 322 moses 1;
#X obj 963 175 metro 50;
#X obj 1060 379 * 0.8;
#X obj 971 344 t b;
#N canvas 0 0 450 300 (subpatch) 0;
#X array arrayADSR 4 float 5 black black;
#A 0 0 0.35 0.292857 0;
#X coords 0 1 3 0 200 140 1;
#X restore 1331 437 graph;
#X obj 929 488 tabread4 arrayADSR;
#X obj 930 513 nbx 5 14 -1e+037 1e+037 0 0 empty empty empty 0 -8 0
10 -262144 -1 -1 0.292857 256 0;
#X obj 929 469 nbx 5 14 -1e+037 1e+037 0 0 empty empty empty 0 -8 0
10 -262144 -1 -1 6 256 0;
#X obj 832 -88 nbx 5 14 -1e+037 1e+037 0 0 empty empty empty 0 -8 0
10 -262144 -1 -1 3 256 0;
#X msg 1372 -20 0;
#N canvas 2015 719 450 324 down 1;
#X obj 25 37 inlet;
#X obj 66 37 inlet;
#X obj 106 37 inlet;
#X obj 146 37 inlet;
#X obj 187 37 inlet;
#X obj 227 37 inlet;
#X obj 267 37 inlet;
#X obj 350 99 inlet;
#X obj 349 152 inlet;
#X text 350 79 ADSR;
#X text 350 131 OSC_VOLUME;
#X obj 307 37 inlet;
#X restore 606 108 pd down;
#N canvas 1486 518 888 682 flat 1;
#X obj 19 44 inlet;
#X obj 60 44 inlet;
#X obj 100 44 inlet;
#X obj 140 44 inlet;
#X obj 180 44 inlet;
#X obj 221 44 inlet;
#X obj 261 44 inlet;
#X obj 300 44 inlet;
#X obj 528 210 inlet;
#X obj 158 220 *~;
#X obj 141 270 *~;
#X obj 157 193 phasor~;
#X obj 78 192 osc~;
#X obj 61 250 *~;
#X obj 78 279 *~;
#X obj 103 227 * 0.6;
#X obj 110 311 outlet~;
#X obj 529 250 inlet;
#X text 526 191 ADSR;
#X text 528 233 OSC_VOLUME;
#X obj 340 44 inlet;
#X obj 324 124 - 6;
#X connect 0 0 12 0;
#X connect 0 0 11 0;
#X connect 0 0 21 0;
#X connect 1 0 12 0;
#X connect 1 0 11 0;
#X connect 1 0 21 0;
#X connect 2 0 12 0;
#X connect 2 0 11 0;
#X connect 2 0 21 0;
#X connect 3 0 12 0;
#X connect 3 0 11 0;
#X connect 3 0 21 0;
#X connect 4 0 12 0;
#X connect 4 0 11 0;
#X connect 4 0 21 0;
#X connect 5 0 12 0;
#X connect 5 0 11 0;
#X connect 5 0 21 0;
#X connect 6 0 12 0;
#X connect 6 0 11 0;
#X connect 6 0 21 0;
#X connect 7 0 12 0;
#X connect 7 0 11 0;
#X connect 8 0 9 1;
#X connect 8 0 15 0;
#X connect 9 0 10 0;
#X connect 10 0 16 0;
#X connect 11 0 9 0;
#X connect 12 0 13 0;
#X connect 13 0 14 0;
#X connect 14 0 16 0;
#X connect 15 0 13 1;
#X connect 17 0 10 1;
#X connect 17 0 14 1;
#X connect 20 0 11 0;
#X connect 20 0 12 0;
#X connect 21 0 12 0;
#X connect 21 0 11 0;
#X restore 371 107 pd flat;
#N canvas 1400 473 921 834 up 1;
#X obj 13 42 inlet;
#X obj 54 42 inlet;
#X obj 94 42 inlet;
#X obj 134 42 inlet;
#X obj 175 42 inlet;
#X obj 215 42 inlet;
#X obj 255 42 inlet;
#X obj 616 397 inlet;
#X obj 617 452 inlet;
#X text 615 377 ADSR;
#X text 617 430 OSC_VOLUME;
#X obj 296 42 inlet;
#X obj 78 243 line~;
#X obj 76 186 pack 1 2;
#X msg 76 208 \$1 \, \$2 500;
#X obj 77 87 ftom;
#X obj 133 128 mtof;
#X obj 77 128 mtof;
#X obj 116 470 *~;
#X obj 93 378 phasor~;
#X obj 116 517 *~;
#X obj 116 539 outlet~;
#X obj 550 81 inlet;
#X text 549 63 loadbang;
#X obj 115 423 *~;
#X obj 348 213 nbx 5 14 -1e+037 1e+037 0 0 empty empty empty 0 -8 0
10 -262144 -1 -1 1 256 0;
#X obj 624 161 nbx 5 14 -1e+037 1e+037 0 0 empty empty empty 0 -8 0
10 -262144 -1 -1 0 256 0;
#X obj 624 180 t b;
#X msg 624 202 0;
#X obj 357 138 != 1;
#X obj 559 125 == 1;
#X obj 559 166 bng 15 250 50 0 empty empty empty 17 7 0 10 -262144
-1 -1;
#X obj 477 151 bng 15 250 50 0 empty empty empty 17 7 0 10 -262144
-1 -1;
#X obj 713 205 bng 15 250 50 0 empty empty empty 17 7 0 10 -262144
-1 -1;
#X obj 550 103 % 12;
#X obj 133 106 + 12;
#X connect 0 0 15 0;
#X connect 1 0 15 0;
#X connect 2 0 15 0;
#X connect 3 0 15 0;
#X connect 4 0 15 0;
#X connect 5 0 15 0;
#X connect 6 0 15 0;
#X connect 7 0 18 1;
#X connect 8 0 20 1;
#X connect 11 0 19 0;
#X connect 12 0 19 0;
#X connect 13 0 14 0;
#X connect 14 0 12 0;
#X connect 15 0 17 0;
#X connect 15 0 35 0;
#X connect 16 0 13 1;
#X connect 17 0 13 0;
#X connect 18 0 20 0;
#X connect 19 0 24 0;
#X connect 20 0 21 0;
#X connect 22 0 34 0;
#X connect 24 0 18 0;
#X connect 25 0 24 1;
#X connect 26 0 27 0;
#X connect 27 0 28 0;
#X connect 27 0 33 0;
#X connect 29 0 25 0;
#X connect 29 0 32 0;
#X connect 30 0 26 0;
#X connect 30 0 31 0;
#X connect 34 0 29 0;
#X connect 34 0 30 0;
#X connect 35 0 16 0;
#X restore 107 98 pd up;
#X obj 483 381 tgl 15 0 empty empty empty 17 7 0 10 -262144 -1 -1 1
1;
#X obj 762 -108 random 11;
#X obj 1060 316 % 3;
#X obj 929 447 % 8;
#X connect 0 0 60 0;
#X connect 0 0 59 0;
#X connect 0 0 58 0;
#X connect 2 0 59 9;
#X connect 2 0 60 9;
#X connect 2 0 58 8;
#X connect 3 0 0 0;
#X connect 4 0 3 0;
#X connect 5 0 60 1;
#X connect 5 0 59 1;
#X connect 5 0 58 1;
#X connect 6 0 5 0;
#X connect 7 0 6 0;
#X connect 8 0 60 2;
#X connect 8 0 59 2;
#X connect 8 0 58 2;
#X connect 9 0 8 0;
#X connect 10 0 9 0;
#X connect 11 0 60 3;
#X connect 11 0 59 3;
#X connect 11 0 58 3;
#X connect 12 0 11 0;
#X connect 13 0 60 4;
#X connect 13 0 59 5;
#X connect 13 0 58 4;
#X connect 14 0 13 0;
#X connect 15 0 60 5;
#X connect 15 0 59 6;
#X connect 15 0 58 5;
#X connect 16 0 15 0;
#X connect 17 0 60 6;
#X connect 17 0 59 7;
#X connect 17 0 58 6;
#X connect 18 0 17 0;
#X connect 19 0 6 0;
#X connect 20 0 9 0;
#X connect 21 0 12 0;
#X connect 22 0 12 0;
#X connect 23 0 14 0;
#X connect 24 0 14 0;
#X connect 25 0 16 0;
#X connect 26 0 16 0;
#X connect 27 0 18 0;
#X connect 28 0 18 0;
#X connect 29 0 4 0;
#X connect 29 0 7 0;
#X connect 29 0 10 0;
#X connect 29 0 21 0;
#X connect 29 0 24 0;
#X connect 29 0 26 0;
#X connect 29 0 28 0;
#X connect 30 0 4 0;
#X connect 30 0 7 0;
#X connect 30 0 20 0;
#X connect 30 0 21 0;
#X connect 30 0 24 0;
#X connect 30 0 26 0;
#X connect 30 0 27 0;
#X connect 31 0 4 0;
#X connect 31 0 19 0;
#X connect 31 0 20 0;
#X connect 31 0 21 0;
#X connect 31 0 24 0;
#X connect 31 0 25 0;
#X connect 31 0 27 0;
#X connect 32 0 4 0;
#X connect 32 0 7 0;
#X connect 32 0 10 0;
#X connect 32 0 22 0;
#X connect 32 0 24 0;
#X connect 32 0 26 0;
#X connect 32 0 28 0;
#X connect 33 0 4 0;
#X connect 33 0 7 0;
#X connect 33 0 10 0;
#X connect 33 0 21 0;
#X connect 33 0 24 0;
#X connect 33 0 26 0;
#X connect 33 0 27 0;
#X connect 34 0 4 0;
#X connect 34 0 7 0;
#X connect 34 0 20 0;
#X connect 34 0 21 0;
#X connect 34 0 24 0;
#X connect 34 0 25 0;
#X connect 34 0 27 0;
#X connect 35 0 19 0;
#X connect 35 0 4 0;
#X connect 35 0 20 0;
#X connect 35 0 21 0;
#X connect 35 0 23 0;
#X connect 35 0 25 0;
#X connect 35 0 27 0;
#X connect 36 0 37 0;
#X connect 37 0 29 0;
#X connect 37 1 32 0;
#X connect 37 2 33 0;
#X connect 37 3 30 0;
#X connect 37 4 34 0;
#X connect 37 5 31 0;
#X connect 37 6 35 0;
#X connect 38 0 36 0;
#X connect 39 0 60 10;
#X connect 40 0 39 0;
#X connect 40 0 59 10;
#X connect 40 0 58 9;
#X connect 41 0 3 0;
#X connect 41 1 6 0;
#X connect 41 2 9 0;
#X connect 41 3 12 0;
#X connect 41 4 14 0;
#X connect 41 5 16 0;
#X connect 41 6 18 0;
#X connect 41 7 57 0;
#X connect 42 0 49 0;
#X connect 43 0 44 0;
#X connect 43 0 63 0;
#X connect 43 0 64 0;
#X connect 43 0 60 8;
#X connect 44 0 43 1;
#X connect 45 0 50 0;
#X connect 47 0 45 0;
#X connect 48 0 51 0;
#X connect 49 0 46 0;
#X connect 49 0 43 0;
#X connect 51 0 61 0;
#X connect 51 0 62 0;
#X connect 53 0 54 0;
#X connect 54 0 2 0;
#X connect 55 0 53 0;
#X connect 57 0 59 8;
#X connect 57 0 58 7;
#X connect 57 0 60 7;
#X connect 60 0 1 0;
#X connect 60 0 1 1;
#X connect 62 0 41 0;
#X connect 62 0 56 0;
#X connect 63 0 47 0;
#X connect 63 0 48 0;
#X connect 64 0 55 0;
