#N canvas 104 52 1868 1341 10;
#X obj 122 310 mtof;
#X obj 80 543 dac~;
#X obj 1093 735 hsl 128 15 0 1 0 0 empty vol1 vol1 -2 -8 0 10 -262144
-1 -1 3719 1;
#X obj 122 289 nbx 5 14 -1e+037 1e+037 0 0 empty empty empty 0 -8 0
10 -260129 -1 -1 60 256 0;
#X msg 105 143 60;
#X obj 318 310 mtof;
#X obj 318 289 nbx 5 14 -1e+037 1e+037 0 0 empty empty empty 0 -8 0
10 -260507 -1 -1 62 256 0;
#X msg 341 142 62;
#X obj 508 309 mtof;
#X obj 508 288 nbx 5 14 -1e+037 1e+037 0 0 empty empty empty 0 -8 0
10 -262113 -1 -1 64 256 0;
#X msg 531 141 64;
#X obj 699 311 mtof;
#X obj 699 290 nbx 5 14 -1e+037 1e+037 0 0 empty empty empty 0 -8 0
10 -180183 -1 -1 66 256 0;
#X obj 895 311 mtof;
#X obj 895 290 nbx 5 14 -1e+037 1e+037 0 0 empty empty empty 0 -8 0
10 -159744 -1 -1 67 256 0;
#X obj 1085 310 mtof;
#X obj 1085 289 nbx 5 14 -1e+037 1e+037 0 0 empty empty empty 0 -8
0 10 -134208 -1 -1 69 256 0;
#X obj 1273 314 mtof;
#X obj 1273 286 nbx 5 14 -1e+037 1e+037 0 0 empty empty empty 0 -8
0 10 -202879 -1 -1 71 256 0;
#X msg 301 143 61;
#X msg 491 142 63;
#X msg 682 144 65;
#X msg 722 143 66;
#X msg 878 144 66;
#X msg 918 143 67;
#X msg 1068 143 68;
#X msg 1108 142 69;
#X msg 1256 147 70;
#X msg 1296 146 71;
#X obj 105 44 bng 15 250 50 0 empty Ionian Ionian 17 7 0 10 -261234
-1 -1;
#X obj 202 41 bng 15 250 50 0 empty Dorian Dorian 17 7 0 10 -261682
-1 -1;
#X obj 308 43 bng 15 250 50 0 empty Phyrgian Phyrgian 17 7 0 10 -262130
-1 -1;
#X obj 433 39 bng 15 250 50 0 empty Lydian Lydian 17 7 0 10 -204786
-1 -1;
#X obj 537 38 bng 15 250 50 0 empty Mixolydian Mixolydian 17 7 0 10
-204800 -1 -1;
#X obj 643 38 bng 15 250 50 0 empty Aeolian Aeolian 17 7 0 10 -203904
-1 -1;
#X obj 744 38 bng 15 250 50 0 empty Locrian Locrian 17 7 0 10 -232576
-1 -1;
#X obj 41 -23 hradio 15 0 0 7 empty empty empty 0 -8 0 10 -262144 -1
-1 1;
#X obj 85 -1 sel 0 1 2 3 4 5 6;
#X obj 26 -111 nbx 5 14 -1e+037 1e+037 0 0 empty mode mode 0 -8 0 10
-262144 -258244 -1 1 256 0;
#X obj 973 890 nbx 5 14 -1e+037 1e+037 0 0 empty empty empty 0 -8 0
10 -262144 -1 -1 0.3 256 0;
#X obj 967 866 hsl 128 15 0 1 0 0 empty OSC_VOLUME OSC_VOLUME -2 -8
0 10 -262144 -1 -1 3810 1;
#X obj 75 237 sel 1 2 3 4 5 6 7;
#X obj 1247 424 f;
#X obj 1280 424 + 1;
#X obj 1117 556 nbx 5 14 -1e+037 1e+037 0 0 empty empty empty 0 -8
0 10 -262144 -1 -1 1 256 0;
#X obj 1117 534 != 0;
#X obj 1063 537 moses 1;
#X obj 1248 397 metro 50;
#X obj 1117 575 * 0.8;
#X obj 1063 559 t b;
#N canvas 0 0 450 300 (subpatch) 0;
#X array arrayADSR 4 float 5 black black;
#A 0 0 0.35 0.292857 0;
#X coords 0 1 3 0 200 140 1;
#X restore 1228 -187 graph;
#X obj 1092 687 tabread4 arrayADSR;
#X obj 1093 712 nbx 5 14 -1e+037 1e+037 0 0 empty empty empty 0 -8
0 10 -262144 -1 -1 0.292857 256 0;
#X obj 1092 668 nbx 5 14 -1e+037 1e+037 0 0 empty empty empty 0 -8
0 10 -262144 -1 -1 6 256 0;
#X obj 144 213 nbx 5 14 -1e+037 1e+037 0 0 empty empty empty 0 -8 0
10 -262144 -1 -1 10 256 0;
#X msg 1381 289 0;
#N canvas 1241 470 606 830 down 0;
#X obj 97 -245 line~;
#X obj 97 -301 pack 1 2;
#X obj 97 -363 ftom;
#X obj 142 -324 mtof;
#X obj 97 -322 mtof;
#X obj 97 -178 *~;
#X obj 97 -214 phasor~;
#X obj 97 -152 *~;
#X obj 97 21 outlet~;
#X obj 97 -126 *~;
#X obj 381 -195 inlet;
#X obj 425 -169 inlet;
#X obj 467 -143 inlet;
#X text 381 -213 ADSR;
#X text 423 -190 OSC_VOLUME;
#X text 466 -161 updown;
#X obj 42 -414 inlet;
#X obj 79 -414 inlet;
#X obj 115 -414 inlet;
#X obj 153 -414 inlet;
#X obj 191 -414 inlet;
#X obj 228 -414 inlet;
#X obj 265 -414 inlet;
#X obj 305 -410 inlet;
#X obj 142 -346 - 12;
#X msg 97 -279 \$1 \, \$2 250;
#X connect 0 0 6 0;
#X connect 1 0 25 0;
#X connect 2 0 4 0;
#X connect 2 0 24 0;
#X connect 3 0 1 1;
#X connect 4 0 1 0;
#X connect 5 0 7 0;
#X connect 6 0 5 0;
#X connect 7 0 9 0;
#X connect 9 0 8 0;
#X connect 10 0 5 1;
#X connect 11 0 7 1;
#X connect 12 0 9 1;
#X connect 16 0 2 0;
#X connect 17 0 2 0;
#X connect 18 0 2 0;
#X connect 19 0 2 0;
#X connect 20 0 2 0;
#X connect 21 0 2 0;
#X connect 22 0 2 0;
#X connect 23 0 6 0;
#X connect 24 0 3 0;
#X connect 25 0 0 0;
#X restore 698 466 pd down;
#N canvas 1269 664 890 550 flat 0;
#X obj 19 44 inlet;
#X obj 60 44 inlet;
#X obj 100 44 inlet;
#X obj 140 44 inlet;
#X obj 180 44 inlet;
#X obj 221 44 inlet;
#X obj 261 44 inlet;
#X obj 300 44 inlet;
#X obj 528 210 inlet;
#X obj 147 240 *~;
#X obj 147 261 *~;
#X obj 157 193 phasor~;
#X obj 78 192 osc~;
#X obj 72 240 *~;
#X obj 72 263 *~;
#X obj 89 218 * 0.6;
#X obj 99 421 outlet~;
#X obj 569 250 inlet;
#X text 526 191 ADSR;
#X text 568 233 OSC_VOLUME;
#X obj 340 53 inlet;
#X obj 367 121 - 6;
#X obj 635 277 inlet;
#X text 635 258 updown;
#X obj 72 285 *~;
#X obj 147 283 *~;
#X connect 0 0 12 0;
#X connect 0 0 11 0;
#X connect 0 0 21 0;
#X connect 1 0 12 0;
#X connect 1 0 11 0;
#X connect 1 0 21 0;
#X connect 2 0 12 0;
#X connect 2 0 11 0;
#X connect 2 0 21 0;
#X connect 3 0 12 0;
#X connect 3 0 11 0;
#X connect 3 0 21 0;
#X connect 4 0 12 0;
#X connect 4 0 11 0;
#X connect 4 0 21 0;
#X connect 5 0 12 0;
#X connect 5 0 11 0;
#X connect 5 0 21 0;
#X connect 6 0 12 0;
#X connect 6 0 11 0;
#X connect 6 0 21 0;
#X connect 7 0 12 0;
#X connect 7 0 11 0;
#X connect 8 0 9 1;
#X connect 8 0 15 0;
#X connect 9 0 10 0;
#X connect 10 0 25 0;
#X connect 11 0 9 0;
#X connect 12 0 13 0;
#X connect 13 0 14 0;
#X connect 14 0 24 0;
#X connect 15 0 13 1;
#X connect 17 0 10 1;
#X connect 17 0 14 1;
#X connect 20 0 11 0;
#X connect 20 0 12 0;
#X connect 21 0 12 0;
#X connect 21 0 11 0;
#X connect 22 0 25 1;
#X connect 22 0 24 1;
#X connect 24 0 16 0;
#X connect 25 0 16 0;
#X restore 399 460 pd flat;
#N canvas 0 0 130 0 up 0;
#X obj 77 205 line~;
#X obj 77 149 pack 1 2;
#X msg 77 171 \$1 \, \$2 500;
#X obj 77 87 ftom;
#X obj 122 126 mtof;
#X obj 77 128 mtof;
#X obj 77 272 *~;
#X obj 77 236 phasor~;
#X obj 77 298 *~;
#X obj 77 471 outlet~;
#X obj 122 104 + 12;
#X obj 77 324 *~;
#X obj 361 255 inlet;
#X obj 405 281 inlet;
#X obj 447 307 inlet;
#X text 361 237 ADSR;
#X text 403 260 OSC_VOLUME;
#X text 446 289 updown;
#X obj 22 36 inlet;
#X obj 59 36 inlet;
#X obj 95 36 inlet;
#X obj 133 36 inlet;
#X obj 171 36 inlet;
#X obj 208 36 inlet;
#X obj 245 36 inlet;
#X obj 285 40 inlet;
#X connect 0 0 7 0;
#X connect 1 0 2 0;
#X connect 2 0 0 0;
#X connect 3 0 5 0;
#X connect 3 0 10 0;
#X connect 4 0 1 1;
#X connect 5 0 1 0;
#X connect 6 0 8 0;
#X connect 7 0 6 0;
#X connect 8 0 11 0;
#X connect 10 0 4 0;
#X connect 11 0 9 0;
#X connect 12 0 6 1;
#X connect 13 0 8 1;
#X connect 14 0 11 1;
#X connect 18 0 3 0;
#X connect 19 0 3 0;
#X connect 20 0 3 0;
#X connect 21 0 3 0;
#X connect 22 0 3 0;
#X connect 23 0 3 0;
#X connect 24 0 3 0;
#X connect 25 0 7 0;
#X restore 81 480 pd up;
#X obj 1092 646 % 8;
#X obj 429 -57 tgl 15 0 empty empty empty 17 7 0 10 -262144 -1 -1 1
1;
#X obj 256 -147 bng 15 250 50 0 empty empty empty 17 7 0 10 -262144
-1 -1;
#X obj 361 -60 nbx 5 14 -1e+037 1e+037 0 0 mode empty empty 0 -8 0
10 -262144 -1 -1 1 256 0;
#X obj 471 -76 nbx 5 14 0 1 0 0 empty empty VOLUME 0 -8 0 10 -262144
-1 -1 0.5 256 0;
#X obj 560 -57 nbx 5 14 -1e+037 1e+037 0 0 OSC_UPDOWN empty UPDOWN
0 -8 0 10 -262144 -1 -1 1 256 0;
#X obj 472 -35 nbx 5 14 -1e+037 1e+037 0 0 OSC_VOLUME empty empty 0
-8 0 10 -262144 -1 -1 0.3 256 0;
#X obj 471 -57 * 0.6;
#X obj 1434 -186 import mrpeach;
#X obj 1389 601 nbx 5 14 -1e+037 1e+037 0 0 empty empty empty 0 -8
0 10 -262144 -1 -1 0 256 0;
#X obj 1283 538 moses 1;
#X obj 1389 620 * 0.8;
#X obj 1319 561 t b;
#X obj 1389 557 % 2;
#X obj 1389 579 == 0;
#X obj 1583 603 nbx 5 14 -1e+037 1e+037 0 0 empty empty empty 0 -8
0 10 -262144 -1 -1 0 256 0;
#X obj 1516 562 moses 1;
#X obj 1583 622 * 0.8;
#X obj 1583 559 % 2;
#X obj 1554 585 t b;
#X obj 1583 581 == 0;
#X obj 1249 375 loadbang;
#X obj 1308 509 == 0;
#X obj 1350 537 nbx 5 14 -1e+037 1e+037 0 0 empty empty empty 0 -8
0 10 -262144 -1 -1 1 256 0;
#X obj 440 647 sel 0 1 2;
#X obj 400 699 t b b b;
#X msg 400 721 1;
#X msg 419 746 0;
#X msg 439 771 0;
#X obj 467 808 t b b b;
#X msg 506 880 0;
#X obj 539 918 t b b b;
#X msg 558 965 0;
#X msg 467 830 0;
#X msg 486 855 1;
#X msg 539 940 0;
#X msg 578 990 1;
#X obj 444 622 nbx 5 14 -1e+037 1e+037 0 0 empty OSC_UPDOWN empty 0
-8 0 10 -262144 -1 -1 1 256 0;
#X obj 1293 738 hsl 128 15 0 1 0 0 empty vol1 vol1 -2 -8 0 10 -262144
-1 -1 3719 1;
#X obj 1292 690 tabread4 arrayADSR;
#X obj 1293 715 nbx 5 14 -1e+037 1e+037 0 0 empty empty empty 0 -8
0 10 -262144 -1 -1 0.292857 256 0;
#X obj 1292 671 nbx 5 14 -1e+037 1e+037 0 0 empty empty empty 0 -8
0 10 -262144 -1 -1 2 256 0;
#X obj 1529 739 hsl 128 15 0 1 0 0 empty vol1 vol1 -2 -8 0 10 -262144
-1 -1 3719 1;
#X obj 1528 691 tabread4 arrayADSR;
#X obj 1529 716 nbx 5 14 -1e+037 1e+037 0 0 empty empty empty 0 -8
0 10 -262144 -1 -1 0.292857 256 0;
#X obj 1528 672 nbx 5 14 -1e+037 1e+037 0 0 empty empty empty 0 -8
0 10 -262144 -1 -1 2 256 0;
#X obj 1508 484 % 5;
#X obj 1508 506 == 0;
#X obj 1528 650 % 5;
#X obj 1292 649 % 10;
#X obj 572 220 sel 1 2 3 4 5 6 7;
#X obj 641 196 nbx 5 14 -1e+037 1e+037 0 0 empty empty empty 0 -8 0
10 -262144 -1 -1 4 256 0;
#X obj 571 176 random 11;
#X obj 1436 213 sel 1 2 3 4 5 6 7;
#X obj 1505 189 nbx 5 14 -1e+037 1e+037 0 0 empty empty empty 0 -8
0 10 -262144 -1 -1 6 256 0;
#X obj 1435 169 random 11;
#X obj 403 505 dac~;
#X obj 698 488 dac~;
#X obj 122 332 bng 15 250 50 0 empty empty empty 17 7 0 10 -262144
-1 -1;
#X obj 318 332 bng 15 250 50 0 empty empty empty 17 7 0 10 -262144
-1 -1;
#X obj 508 331 bng 15 250 50 0 empty empty empty 17 7 0 10 -262144
-1 -1;
#X obj 699 333 bng 15 250 50 0 empty empty empty 17 7 0 10 -262144
-1 -1;
#X obj 895 333 bng 15 250 50 0 empty empty empty 17 7 0 10 -262144
-1 -1;
#X obj 1085 332 bng 15 250 50 0 empty empty empty 17 7 0 10 -262144
-1 -1;
#X obj 1273 336 bng 15 250 50 0 empty empty empty 17 7 0 10 -262144
-1 -1;
#X obj 319 -154 udpreceive 9001;
#X obj 71 201 random 11;
#N canvas 1158 520 450 324 drum 0;
#N canvas 1294 617 484 498 kick 0;
#X obj 109 36 bng 15 250 50 0 empty empty empty 17 7 0 10 -262144 -1
-1;
#X obj 110 80 vline~;
#X obj 19 102 *~;
#X obj 19 237 *~;
#X obj 111 104 vsl 15 128 0 1 0 0 empty empty empty 0 -9 0 10 -262144
-1 -1 12700 1;
#X obj 19 259 dac~;
#X text 63 220 volume;
#X obj 19 35 osc~ 50;
#X obj 19 57 lop~ 400;
#X msg 109 58 1 1 \, 0 100 1;
#X obj 109 14 inlet;
#X obj 181 127 inlet;
#X obj 19 305 outlet~;
#X connect 0 0 9 0;
#X connect 1 0 2 1;
#X connect 2 0 3 0;
#X connect 3 0 5 0;
#X connect 3 0 5 1;
#X connect 3 0 12 0;
#X connect 4 0 3 1;
#X connect 7 0 8 0;
#X connect 8 0 2 0;
#X connect 9 0 1 0;
#X connect 10 0 0 0;
#X connect 11 0 4 0;
#X restore 51 357 pd kick;
#X obj 51 333 bng 15 250 50 0 empty kick kick 17 7 0 10 -262144 -1
-1;
#N canvas 1016 501 368 388 snare 0;
#X obj 108 56 bng 15 250 50 0 empty empty empty 17 7 0 10 -262144 -1
-1;
#X obj 108 101 vline~;
#X obj 17 123 *~;
#X obj 17 258 *~;
#X obj 110 125 vsl 15 128 0 1 0 0 empty empty empty 0 -9 0 10 -262144
-1 -1 8255 1;
#X obj 17 280 dac~;
#X text 64 241 volume;
#X text 154 102 Envelope;
#X obj 17 46 noise~;
#X obj 17 72 hip~ 2200;
#X obj 17 94 lop~ 700;
#X msg 108 79 0.5 0.7 \, 0 70 0.7;
#X text 136 249 init volume;
#X obj 108 33 inlet;
#X obj 182 138 inlet;
#X obj 17 318 outlet~;
#X connect 0 0 11 0;
#X connect 1 0 2 1;
#X connect 2 0 3 0;
#X connect 3 0 5 0;
#X connect 3 0 5 1;
#X connect 3 0 15 0;
#X connect 4 0 3 1;
#X connect 8 0 9 0;
#X connect 9 0 10 0;
#X connect 10 0 2 0;
#X connect 11 0 1 0;
#X connect 13 0 0 0;
#X connect 14 0 4 0;
#X restore 155 353 pd snare;
#X obj 155 327 bng 15 250 50 0 empty snare snare 17 7 0 10 -262144
-1 -1;
#X msg 200 298 0.65;
#N canvas 1016 610 348 478 hihat 0;
#X obj 121 68 bng 15 250 50 0 empty empty empty 17 7 0 10 -262144 -1
-1;
#X obj 122 111 vline~;
#X obj 27 133 *~;
#X obj 27 268 *~;
#X obj 124 135 vsl 15 128 0 1 0 0 empty empty empty 0 -9 0 10 -262144
-1 -1 1905 1;
#X obj 27 290 dac~;
#X text 77 251 volume;
#X text 168 112 Envelope;
#X obj 27 30 noise~;
#X obj 27 106 hip~;
#X obj 52 53 random 200;
#X obj 52 75 + 6000;
#X text 153 263 init volume;
#X obj 121 37 inlet;
#X obj 185 140 inlet;
#X obj 27 337 outlet~;
#X msg 121 89 0.2 1 \, 0 50 15;
#X connect 0 0 16 0;
#X connect 0 0 10 0;
#X connect 1 0 2 1;
#X connect 2 0 3 0;
#X connect 3 0 5 0;
#X connect 3 0 5 1;
#X connect 3 0 15 0;
#X connect 4 0 3 1;
#X connect 8 0 9 0;
#X connect 9 0 2 0;
#X connect 10 0 11 0;
#X connect 11 0 9 1;
#X connect 13 0 0 0;
#X connect 14 0 4 0;
#X connect 16 0 1 0;
#X restore 260 356 pd hihat;
#X obj 259 329 bng 15 250 50 0 empty hihat hihat 17 7 0 10 -262144
-1 -1;
#X msg 305 305 0.25;
#N canvas 632 443 348 454 hihat 0;
#X obj 121 68 bng 15 250 50 0 empty empty empty 17 7 0 10 -262144 -1
-1;
#X obj 122 111 vline~;
#X obj 27 133 *~;
#X obj 27 268 *~;
#X obj 124 135 vsl 15 128 0 1 0 0 empty empty empty 0 -9 0 10 -262144
-1 -1 635 1;
#X obj 27 290 dac~;
#X text 77 251 volume;
#X text 168 112 Envelope;
#X obj 27 30 noise~;
#X obj 27 106 hip~;
#X obj 52 53 random 200;
#X obj 52 75 + 6000;
#X msg 121 89 0.2 1 \, 0 50 1;
#X text 153 263 init volume;
#X obj 121 37 inlet;
#X obj 185 140 inlet;
#X obj 27 337 outlet~;
#X connect 0 0 12 0;
#X connect 0 0 10 0;
#X connect 1 0 2 1;
#X connect 2 0 3 0;
#X connect 3 0 5 0;
#X connect 3 0 5 1;
#X connect 3 0 16 0;
#X connect 4 0 3 1;
#X connect 8 0 9 0;
#X connect 9 0 2 0;
#X connect 10 0 11 0;
#X connect 11 0 9 1;
#X connect 12 0 1 0;
#X connect 14 0 0 0;
#X connect 15 0 4 0;
#X restore 433 360 pd hihat;
#X obj 431 326 bng 15 250 50 0 empty hihat hihat 17 7 0 10 -262144
-1 -1;
#X msg 351 302 0.15;
#X obj 284 58 f;
#X obj 313 58 + 1;
#X obj 57 216 moses 1;
#X obj 49 260 t b;
#X obj 259 11 metro 125;
#X obj 56 170 % 8;
#X obj 296 232 random 2;
#X obj 296 254 sel 0 1;
#X obj 347 193 moses 1;
#X obj 346 171 == 1;
#X obj 346 150 % 2;
#X obj 371 216 t b;
#X msg 478 309 0.05;
#X msg 90 303 1;
#X obj 422 266 sel 0 1;
#X obj 472 191 moses 1;
#X obj 471 169 == 1;
#X obj 471 148 % 2;
#X obj 496 214 t b;
#X obj 422 244 random 5;
#X obj 176 188 moses 1;
#X obj 175 145 % 8;
#X obj 175 166 == 5;
#X obj 193 222 t b;
#X obj 56 194 == 1;
#X obj 56 145 f;
#X obj 85 145 + 1;
#N canvas 1016 632 348 502 hihat 0;
#X obj 121 68 bng 15 250 50 0 empty empty empty 17 7 0 10 -262144 -1
-1;
#X obj 122 111 vline~;
#X obj 27 133 *~;
#X obj 27 268 *~;
#X obj 124 135 vsl 15 128 0 1 0 0 empty empty empty 0 -9 0 10 -262144
-1 -1 1905 1;
#X obj 27 290 dac~;
#X text 77 251 volume;
#X text 168 112 Envelope;
#X obj 65 6 noise~;
#X obj 27 106 hip~;
#X obj 52 75 + 6000;
#X text 153 263 init volume;
#X obj 121 37 inlet;
#X obj 185 140 inlet;
#X obj 27 337 outlet~;
#X obj 52 53 random 500;
#X obj 2 26 phasor~ 550;
#X msg 121 89 0.15 0.5 \, 0 20 150;
#X connect 0 0 17 0;
#X connect 0 0 15 0;
#X connect 1 0 2 1;
#X connect 2 0 3 0;
#X connect 3 0 5 0;
#X connect 3 0 5 1;
#X connect 3 0 14 0;
#X connect 4 0 3 1;
#X connect 8 0 9 0;
#X connect 9 0 2 0;
#X connect 10 0 9 1;
#X connect 12 0 0 0;
#X connect 13 0 4 0;
#X connect 15 0 10 0;
#X connect 17 0 1 0;
#X restore 535 369 pd hihat;
#X obj 535 348 bng 15 250 50 0 empty hihat hihat 17 7 0 10 -262144
-1 -1;
#X msg 580 318 0.25;
#X msg 620 321 0.15;
#X obj 576 262 random 2;
#X obj 576 284 sel 0 1;
#X obj 573 217 moses 1;
#X obj 572 146 f;
#X obj 601 146 + 1;
#X obj 535 264 t b;
#X obj 572 171 % 16;
#X obj 572 195 == 15;
#X obj 573 234 t b;
#X obj 181 14 inlet;
#X connect 1 0 0 0;
#X connect 3 0 2 0;
#X connect 4 0 2 1;
#X connect 6 0 5 0;
#X connect 7 0 5 1;
#X connect 9 0 8 0;
#X connect 10 0 5 1;
#X connect 11 0 12 0;
#X connect 11 0 21 0;
#X connect 11 0 28 0;
#X connect 11 0 32 0;
#X connect 11 0 45 0;
#X connect 11 0 36 0;
#X connect 12 0 11 1;
#X connect 13 1 14 0;
#X connect 14 0 1 0;
#X connect 14 0 24 0;
#X connect 15 0 11 0;
#X connect 16 0 35 0;
#X connect 17 0 18 0;
#X connect 18 0 7 0;
#X connect 18 1 10 0;
#X connect 19 1 22 0;
#X connect 20 0 19 0;
#X connect 21 0 20 0;
#X connect 22 0 17 0;
#X connect 22 0 6 0;
#X connect 23 0 8 1;
#X connect 24 0 0 1;
#X connect 25 0 9 0;
#X connect 26 0 29 0;
#X connect 27 0 26 0;
#X connect 28 0 27 0;
#X connect 29 0 30 0;
#X connect 29 0 23 0;
#X connect 30 0 25 0;
#X connect 31 1 34 0;
#X connect 32 0 33 0;
#X connect 33 0 31 0;
#X connect 34 0 3 0;
#X connect 34 0 4 0;
#X connect 35 0 13 0;
#X connect 36 0 37 0;
#X connect 36 0 16 0;
#X connect 37 0 36 1;
#X connect 39 0 38 0;
#X connect 40 0 38 1;
#X connect 41 0 38 1;
#X connect 42 0 43 0;
#X connect 43 0 40 0;
#X connect 43 1 41 0;
#X connect 44 0 50 0;
#X connect 44 1 47 0;
#X connect 45 0 46 0;
#X connect 45 0 48 0;
#X connect 46 0 45 1;
#X connect 47 0 39 0;
#X connect 48 0 49 0;
#X connect 49 0 44 0;
#X connect 50 0 42 0;
#X connect 51 0 15 0;
#X restore 1410 397 pd drum;
#X obj 830 -110 import mrpeach;
#X obj 319 -133 unpackOSC;
#X obj 316 -111 routeOSC /mode /toggle /vol /upDown;
#X obj 1117 512 % 10;
#X obj 1308 487 % 3;
#X obj 21 -72 change;
#X connect 0 0 57 0;
#X connect 0 0 58 0;
#X connect 0 0 56 0;
#X connect 0 0 117 0;
#X connect 2 0 57 9;
#X connect 3 0 0 0;
#X connect 4 0 3 0;
#X connect 5 0 57 1;
#X connect 5 0 58 1;
#X connect 5 0 56 1;
#X connect 5 0 118 0;
#X connect 6 0 5 0;
#X connect 7 0 6 0;
#X connect 8 0 57 2;
#X connect 8 0 58 2;
#X connect 8 0 56 2;
#X connect 8 0 119 0;
#X connect 9 0 8 0;
#X connect 10 0 9 0;
#X connect 11 0 57 3;
#X connect 11 0 58 3;
#X connect 11 0 56 3;
#X connect 11 0 120 0;
#X connect 12 0 11 0;
#X connect 13 0 57 5;
#X connect 13 0 58 4;
#X connect 13 0 56 4;
#X connect 13 0 121 0;
#X connect 14 0 13 0;
#X connect 15 0 57 6;
#X connect 15 0 58 5;
#X connect 15 0 56 5;
#X connect 15 0 122 0;
#X connect 16 0 15 0;
#X connect 17 0 57 7;
#X connect 17 0 58 6;
#X connect 17 0 56 6;
#X connect 17 0 123 0;
#X connect 18 0 17 0;
#X connect 19 0 6 0;
#X connect 20 0 9 0;
#X connect 21 0 12 0;
#X connect 22 0 12 0;
#X connect 23 0 14 0;
#X connect 24 0 14 0;
#X connect 25 0 16 0;
#X connect 26 0 16 0;
#X connect 27 0 18 0;
#X connect 28 0 18 0;
#X connect 29 0 4 0;
#X connect 29 0 7 0;
#X connect 29 0 10 0;
#X connect 29 0 21 0;
#X connect 29 0 24 0;
#X connect 29 0 26 0;
#X connect 29 0 28 0;
#X connect 30 0 4 0;
#X connect 30 0 7 0;
#X connect 30 0 20 0;
#X connect 30 0 21 0;
#X connect 30 0 24 0;
#X connect 30 0 26 0;
#X connect 30 0 27 0;
#X connect 31 0 4 0;
#X connect 31 0 19 0;
#X connect 31 0 20 0;
#X connect 31 0 21 0;
#X connect 31 0 24 0;
#X connect 31 0 25 0;
#X connect 31 0 27 0;
#X connect 32 0 4 0;
#X connect 32 0 7 0;
#X connect 32 0 10 0;
#X connect 32 0 22 0;
#X connect 32 0 24 0;
#X connect 32 0 26 0;
#X connect 32 0 28 0;
#X connect 33 0 4 0;
#X connect 33 0 7 0;
#X connect 33 0 10 0;
#X connect 33 0 21 0;
#X connect 33 0 24 0;
#X connect 33 0 26 0;
#X connect 33 0 27 0;
#X connect 34 0 4 0;
#X connect 34 0 7 0;
#X connect 34 0 20 0;
#X connect 34 0 21 0;
#X connect 34 0 24 0;
#X connect 34 0 25 0;
#X connect 34 0 27 0;
#X connect 35 0 19 0;
#X connect 35 0 4 0;
#X connect 35 0 20 0;
#X connect 35 0 21 0;
#X connect 35 0 23 0;
#X connect 35 0 25 0;
#X connect 35 0 27 0;
#X connect 36 0 37 0;
#X connect 37 0 29 0;
#X connect 37 1 32 0;
#X connect 37 2 33 0;
#X connect 37 3 30 0;
#X connect 37 4 34 0;
#X connect 37 5 31 0;
#X connect 37 6 35 0;
#X connect 38 0 132 0;
#X connect 40 0 39 0;
#X connect 40 0 57 10;
#X connect 40 0 58 9;
#X connect 40 0 56 9;
#X connect 41 0 3 0;
#X connect 41 1 6 0;
#X connect 41 2 9 0;
#X connect 41 3 12 0;
#X connect 41 4 14 0;
#X connect 41 5 16 0;
#X connect 41 6 18 0;
#X connect 41 7 55 0;
#X connect 42 0 43 0;
#X connect 42 0 59 0;
#X connect 42 0 105 0;
#X connect 42 0 107 0;
#X connect 42 0 108 0;
#X connect 42 0 130 0;
#X connect 42 0 131 0;
#X connect 43 0 42 1;
#X connect 44 0 48 0;
#X connect 45 0 44 0;
#X connect 46 0 49 0;
#X connect 47 0 42 0;
#X connect 49 0 111 0;
#X connect 51 0 52 0;
#X connect 52 0 2 0;
#X connect 53 0 51 0;
#X connect 55 0 57 8;
#X connect 55 0 58 7;
#X connect 55 0 56 7;
#X connect 56 0 116 0;
#X connect 56 0 116 1;
#X connect 57 0 115 0;
#X connect 57 0 115 1;
#X connect 58 0 1 0;
#X connect 58 0 1 1;
#X connect 59 0 53 0;
#X connect 63 0 66 0;
#X connect 66 0 65 0;
#X connect 68 0 70 0;
#X connect 69 1 71 0;
#X connect 71 0 125 0;
#X connect 72 0 69 0;
#X connect 72 0 73 0;
#X connect 73 0 68 0;
#X connect 74 0 76 0;
#X connect 75 1 78 0;
#X connect 77 0 75 0;
#X connect 77 0 79 0;
#X connect 78 0 114 0;
#X connect 79 0 74 0;
#X connect 80 0 47 0;
#X connect 80 0 126 0;
#X connect 81 0 69 0;
#X connect 81 0 82 0;
#X connect 83 0 84 0;
#X connect 83 1 88 0;
#X connect 83 2 90 0;
#X connect 84 0 85 0;
#X connect 84 1 86 0;
#X connect 84 2 87 0;
#X connect 85 0 58 10;
#X connect 86 0 57 11;
#X connect 87 0 56 10;
#X connect 88 0 92 0;
#X connect 88 1 93 0;
#X connect 88 2 89 0;
#X connect 89 0 56 10;
#X connect 90 0 94 0;
#X connect 90 1 91 0;
#X connect 90 2 95 0;
#X connect 91 0 57 11;
#X connect 92 0 58 10;
#X connect 93 0 57 11;
#X connect 94 0 58 10;
#X connect 95 0 56 10;
#X connect 96 0 83 0;
#X connect 97 0 58 8;
#X connect 98 0 99 0;
#X connect 99 0 97 0;
#X connect 100 0 98 0;
#X connect 101 0 56 8;
#X connect 102 0 103 0;
#X connect 103 0 101 0;
#X connect 104 0 102 0;
#X connect 105 0 106 0;
#X connect 106 0 75 0;
#X connect 107 0 104 0;
#X connect 108 0 100 0;
#X connect 109 0 3 0;
#X connect 109 1 6 0;
#X connect 109 2 9 0;
#X connect 109 3 12 0;
#X connect 109 4 14 0;
#X connect 109 5 16 0;
#X connect 109 6 18 0;
#X connect 109 7 55 0;
#X connect 111 0 109 0;
#X connect 111 0 110 0;
#X connect 112 0 3 0;
#X connect 112 1 6 0;
#X connect 112 2 9 0;
#X connect 112 3 12 0;
#X connect 112 4 14 0;
#X connect 112 5 16 0;
#X connect 112 6 18 0;
#X connect 112 7 55 0;
#X connect 114 0 112 0;
#X connect 114 0 113 0;
#X connect 124 0 61 0;
#X connect 124 0 128 0;
#X connect 125 0 41 0;
#X connect 125 0 54 0;
#X connect 128 0 129 0;
#X connect 129 0 62 0;
#X connect 129 1 60 0;
#X connect 129 2 63 0;
#X connect 129 3 64 0;
#X connect 130 0 45 0;
#X connect 130 0 46 0;
#X connect 131 0 81 0;
#X connect 132 0 36 0;
