#N canvas 196 33 1228 1288 10;
#N canvas 1294 617 484 498 kick 0;
#X obj 109 36 bng 15 250 50 0 empty empty empty 17 7 0 10 -262144 -1
-1;
#X obj 110 80 vline~;
#X obj 19 102 *~;
#X obj 19 237 *~;
#X obj 111 104 vsl 15 128 0 1 0 0 empty empty empty 0 -9 0 10 -262144
-1 -1 12700 1;
#X obj 19 259 dac~;
#X text 63 220 volume;
#X obj 19 35 osc~ 50;
#X obj 19 57 lop~ 400;
#X msg 109 58 1 1 \, 0 100 1;
#X obj 109 14 inlet;
#X obj 181 127 inlet;
#X obj 19 305 outlet~;
#X connect 0 0 9 0;
#X connect 1 0 2 1;
#X connect 2 0 3 0;
#X connect 3 0 5 0;
#X connect 3 0 5 1;
#X connect 3 0 12 0;
#X connect 4 0 3 1;
#X connect 7 0 8 0;
#X connect 8 0 2 0;
#X connect 9 0 1 0;
#X connect 10 0 0 0;
#X connect 11 0 4 0;
#X restore 44 847 pd kick;
#X obj 44 823 bng 15 250 50 0 empty kick kick 17 7 0 10 -262144 -1
-1;
#N canvas 1016 501 368 388 snare 0;
#X obj 108 56 bng 15 250 50 0 empty empty empty 17 7 0 10 -262144 -1
-1;
#X obj 108 101 vline~;
#X obj 17 123 *~;
#X obj 17 258 *~;
#X obj 110 125 vsl 15 128 0 1 0 0 empty empty empty 0 -9 0 10 -262144
-1 -1 12700 1;
#X obj 17 280 dac~;
#X text 64 241 volume;
#X text 154 102 Envelope;
#X obj 17 46 noise~;
#X obj 17 72 hip~ 2200;
#X obj 17 94 lop~ 700;
#X msg 108 79 0.5 0.7 \, 0 70 0.7;
#X text 136 249 init volume;
#X obj 108 33 inlet;
#X obj 182 138 inlet;
#X obj 17 318 outlet~;
#X connect 0 0 11 0;
#X connect 1 0 2 1;
#X connect 2 0 3 0;
#X connect 3 0 5 0;
#X connect 3 0 5 1;
#X connect 3 0 15 0;
#X connect 4 0 3 1;
#X connect 8 0 9 0;
#X connect 9 0 10 0;
#X connect 10 0 2 0;
#X connect 11 0 1 0;
#X connect 13 0 0 0;
#X connect 14 0 4 0;
#X restore 301 692 pd snare;
#X obj 301 666 bng 15 250 50 0 empty snare snare 17 7 0 10 -262144
-1 -1;
#X msg 346 637 0.65;
#N canvas 1016 610 348 478 hihat 0;
#X obj 121 68 bng 15 250 50 0 empty empty empty 17 7 0 10 -262144 -1
-1;
#X obj 122 111 vline~;
#X obj 27 133 *~;
#X obj 27 268 *~;
#X obj 124 135 vsl 15 128 0 1 0 0 empty empty empty 0 -9 0 10 -262144
-1 -1 1905 1;
#X obj 27 290 dac~;
#X text 77 251 volume;
#X text 168 112 Envelope;
#X obj 27 30 noise~;
#X obj 27 106 hip~;
#X obj 52 53 random 200;
#X obj 52 75 + 6000;
#X text 153 263 init volume;
#X obj 121 37 inlet;
#X obj 185 140 inlet;
#X obj 27 337 outlet~;
#X msg 121 89 0.2 1 \, 0 50 15;
#X connect 0 0 16 0;
#X connect 0 0 10 0;
#X connect 1 0 2 1;
#X connect 2 0 3 0;
#X connect 3 0 5 0;
#X connect 3 0 5 1;
#X connect 3 0 15 0;
#X connect 4 0 3 1;
#X connect 8 0 9 0;
#X connect 9 0 2 0;
#X connect 10 0 11 0;
#X connect 11 0 9 1;
#X connect 13 0 0 0;
#X connect 14 0 4 0;
#X connect 16 0 1 0;
#X restore 508 570 pd hihat;
#X obj 508 549 bng 15 250 50 0 empty hihat hihat 17 7 0 10 -262144
-1 -1;
#X msg 553 519 0.25;
#X obj 83 774 bng 15 250 50 0 empty loadbang loadbang 17 7 0 10 -204800
-4160 -4160;
#X obj 346 619 bng 15 250 50 0 empty loadbang loadbang 17 7 0 10 -204800
-4160 -4160;
#N canvas 1294 617 484 498 kick 0;
#X obj 109 36 bng 15 250 50 0 empty empty empty 17 7 0 10 -262144 -1
-1;
#X obj 110 80 vline~;
#X obj 19 102 *~;
#X obj 19 237 *~;
#X obj 111 104 vsl 15 128 0 1 0 0 empty empty empty 0 -9 0 10 -262144
-1 -1 8890 1;
#X obj 19 259 dac~;
#X text 63 220 volume;
#X obj 19 35 osc~ 50;
#X obj 19 57 lop~ 400;
#X msg 109 58 1 1 \, 0 100 1;
#X obj 109 14 inlet;
#X obj 181 127 inlet;
#X obj 19 305 outlet~;
#X connect 0 0 9 0;
#X connect 1 0 2 1;
#X connect 2 0 3 0;
#X connect 3 0 5 0;
#X connect 3 0 5 1;
#X connect 3 0 12 0;
#X connect 4 0 3 1;
#X connect 7 0 8 0;
#X connect 8 0 2 0;
#X connect 9 0 1 0;
#X connect 10 0 0 0;
#X connect 11 0 4 0;
#X restore 247 1110 pd kick;
#X obj 247 1086 bng 15 250 50 0 empty kick kick 17 7 0 10 -262144 -1
-1;
#X msg 286 1056 0.7;
#X obj 286 1037 bng 15 250 50 0 empty loadbang loadbang 17 7 0 10 -204800
-4160 -4160;
#N canvas 1016 501 368 388 snare 0;
#X obj 108 56 bng 15 250 50 0 empty empty empty 17 7 0 10 -262144 -1
-1;
#X obj 108 101 vline~;
#X obj 17 123 *~;
#X obj 17 258 *~;
#X obj 110 125 vsl 15 128 0 1 0 0 empty empty empty 0 -9 0 10 -262144
-1 -1 0 1;
#X obj 17 280 dac~;
#X text 64 241 volume;
#X text 154 102 Envelope;
#X obj 17 46 noise~;
#X obj 17 72 hip~ 2200;
#X obj 17 94 lop~ 700;
#X msg 108 79 0.5 0.7 \, 0 70 0.7;
#X text 136 249 init volume;
#X obj 108 33 inlet;
#X obj 182 138 inlet;
#X obj 17 318 outlet~;
#X connect 0 0 11 0;
#X connect 1 0 2 1;
#X connect 2 0 3 0;
#X connect 3 0 5 0;
#X connect 3 0 5 1;
#X connect 3 0 15 0;
#X connect 4 0 3 1;
#X connect 8 0 9 0;
#X connect 9 0 10 0;
#X connect 10 0 2 0;
#X connect 11 0 1 0;
#X connect 13 0 0 0;
#X connect 14 0 4 0;
#X restore 364 1092 pd snare;
#X obj 364 1066 bng 15 250 50 0 empty snare snare 17 7 0 10 -262144
-1 -1;
#X msg 409 1037 0.65;
#X obj 409 1019 bng 15 250 50 0 empty loadbang loadbang 17 7 0 10 -204800
-4160 -4160;
#N canvas 632 443 348 454 hihat 0;
#X obj 121 68 bng 15 250 50 0 empty empty empty 17 7 0 10 -262144 -1
-1;
#X obj 122 111 vline~;
#X obj 27 133 *~;
#X obj 27 268 *~;
#X obj 124 135 vsl 15 128 0 1 0 0 empty empty empty 0 -9 0 10 -262144
-1 -1 3175 1;
#X obj 27 290 dac~;
#X text 77 251 volume;
#X text 168 112 Envelope;
#X obj 27 30 noise~;
#X obj 27 106 hip~;
#X obj 52 53 random 200;
#X obj 52 75 + 6000;
#X msg 121 89 0.2 1 \, 0 50 1;
#X text 153 263 init volume;
#X obj 121 37 inlet;
#X obj 185 140 inlet;
#X obj 27 337 outlet~;
#X connect 0 0 12 0;
#X connect 0 0 10 0;
#X connect 1 0 2 1;
#X connect 2 0 3 0;
#X connect 3 0 5 0;
#X connect 3 0 5 1;
#X connect 3 0 16 0;
#X connect 4 0 3 1;
#X connect 8 0 9 0;
#X connect 9 0 2 0;
#X connect 10 0 11 0;
#X connect 11 0 9 1;
#X connect 12 0 1 0;
#X connect 14 0 0 0;
#X connect 15 0 4 0;
#X restore 725 603 pd hihat;
#X obj 723 569 bng 15 250 50 0 empty hihat hihat 17 7 0 10 -262144
-1 -1;
#X obj 770 534 bng 15 250 50 0 empty loadbang loadbang 17 7 0 10 -204800
-4160 -4160;
#X obj 350 293 loadbang;
#X msg 631 519 0.15;
#X obj 348 396 f;
#X obj 377 396 + 1;
#X obj 50 683 moses 1;
#X obj 42 750 t b;
#X obj 323 349 metro 125;
#X obj 49 637 % 8;
#X obj 546 421 random 2;
#X obj 546 443 sel 0 1;
#X obj 623 339 moses 1;
#X obj 622 317 == 1;
#X obj 622 296 % 2;
#X obj 647 362 t b;
#X msg 770 552 0.05;
#X msg 83 793 1;
#X obj 714 509 sel 0 1;
#X obj 832 398 moses 1;
#X obj 831 376 == 1;
#X obj 831 355 % 2;
#X obj 856 421 t b;
#X obj 714 487 random 5;
#X obj 322 527 moses 1;
#X obj 321 484 % 8;
#X obj 321 505 == 5;
#X obj 339 561 t b;
#X obj 49 661 == 1;
#X obj 285 938 == 2;
#X obj 285 960 moses 1;
#X obj 574 1005 random 5;
#X obj 573 1028 sel 0 1 2 3 4;
#X obj 49 612 f;
#X obj 78 612 + 1;
#X obj 285 913 % 8;
#X obj 287 880 f;
#X obj 316 880 + 1;
#X obj 254 1009 t b;
#N canvas 1016 632 348 502 hihat 0;
#X obj 121 68 bng 15 250 50 0 empty empty empty 17 7 0 10 -262144 -1
-1;
#X obj 122 111 vline~;
#X obj 27 133 *~;
#X obj 27 268 *~;
#X obj 124 135 vsl 15 128 0 1 0 0 empty empty empty 0 -9 0 10 -262144
-1 -1 3175 1;
#X obj 27 290 dac~;
#X text 77 251 volume;
#X text 168 112 Envelope;
#X obj 65 6 noise~;
#X obj 27 106 hip~;
#X obj 52 75 + 6000;
#X text 153 263 init volume;
#X obj 121 37 inlet;
#X obj 185 140 inlet;
#X obj 27 337 outlet~;
#X obj 52 53 random 500;
#X obj 2 26 phasor~ 550;
#X msg 121 89 0.15 0.5 \, 0 20 150;
#X connect 0 0 17 0;
#X connect 0 0 15 0;
#X connect 1 0 2 1;
#X connect 2 0 3 0;
#X connect 3 0 5 0;
#X connect 3 0 5 1;
#X connect 3 0 14 0;
#X connect 4 0 3 1;
#X connect 8 0 9 0;
#X connect 9 0 2 0;
#X connect 10 0 9 1;
#X connect 12 0 0 0;
#X connect 13 0 4 0;
#X connect 15 0 10 0;
#X connect 17 0 1 0;
#X restore 937 637 pd hihat;
#X obj 937 616 bng 15 250 50 0 empty hihat hihat 17 7 0 10 -262144
-1 -1;
#X msg 982 586 0.25;
#X msg 1060 586 0.15;
#X obj 975 488 random 2;
#X obj 975 510 sel 0 1;
#X obj 972 438 moses 1;
#X obj 971 367 f;
#X obj 1000 367 + 1;
#X obj 934 490 t b;
#X obj 971 392 % 16;
#X obj 971 416 == 15;
#X obj 972 460 t b;
#X connect 1 0 0 0;
#X connect 3 0 2 0;
#X connect 4 0 2 1;
#X connect 6 0 5 0;
#X connect 7 0 5 1;
#X connect 8 0 36 0;
#X connect 9 0 4 0;
#X connect 11 0 10 0;
#X connect 12 0 10 1;
#X connect 13 0 12 0;
#X connect 15 0 14 0;
#X connect 16 0 14 1;
#X connect 17 0 16 0;
#X connect 19 0 18 0;
#X connect 20 0 35 0;
#X connect 21 0 27 0;
#X connect 22 0 5 1;
#X connect 23 0 24 0;
#X connect 23 0 33 0;
#X connect 23 0 40 0;
#X connect 23 0 44 0;
#X connect 23 0 65 0;
#X connect 23 0 52 0;
#X connect 24 0 23 1;
#X connect 25 1 26 0;
#X connect 26 0 1 0;
#X connect 27 0 23 0;
#X connect 28 0 47 0;
#X connect 29 0 30 0;
#X connect 30 0 7 0;
#X connect 30 1 22 0;
#X connect 31 1 34 0;
#X connect 32 0 31 0;
#X connect 33 0 32 0;
#X connect 34 0 29 0;
#X connect 34 0 6 0;
#X connect 35 0 18 1;
#X connect 36 0 0 1;
#X connect 37 0 19 0;
#X connect 38 0 41 0;
#X connect 39 0 38 0;
#X connect 40 0 39 0;
#X connect 41 0 42 0;
#X connect 42 0 37 0;
#X connect 43 1 46 0;
#X connect 44 0 45 0;
#X connect 45 0 43 0;
#X connect 46 0 3 0;
#X connect 47 0 25 0;
#X connect 48 0 49 0;
#X connect 49 1 57 0;
#X connect 50 0 51 0;
#X connect 52 0 53 0;
#X connect 52 0 28 0;
#X connect 53 0 52 1;
#X connect 54 0 48 0;
#X connect 55 0 56 0;
#X connect 55 0 54 0;
#X connect 56 0 55 1;
#X connect 57 0 11 0;
#X connect 59 0 58 0;
#X connect 60 0 58 1;
#X connect 61 0 58 1;
#X connect 62 0 63 0;
#X connect 63 0 60 0;
#X connect 63 1 61 0;
#X connect 64 0 70 0;
#X connect 64 1 67 0;
#X connect 65 0 66 0;
#X connect 65 0 68 0;
#X connect 66 0 65 1;
#X connect 67 0 59 0;
#X connect 68 0 69 0;
#X connect 69 0 64 0;
#X connect 70 0 62 0;
